# Made in Blockbench 4.1.4
mtllib rounded_cube.mtl

o cube
v 0.4375 0.5 -0.4375
v 0.4375 -0.4375 0.5
v 0.4375 0.4375 -0.5
v -0.4375 0.5 -0.4375
v -0.4375 -0.4375 0.5
v -0.4375 0.4375 -0.5
v -0.4375 0.5 0.4375
v 0.4375 0.5 0.4375
v 0.4375 0.4375 0.5
v -0.4375 0.4375 0.5
v 0.4375 -0.4375 -0.5
v -0.4375 -0.4375 -0.5
v 0.4375 -0.5 -0.4375
v -0.4375 -0.5 -0.4375
v -0.4375 -0.5 0.4375
v 0.4375 -0.5 0.4375
v 0.5 0.4375 0.4375
v 0.5 0.4375 -0.4375
v 0.5 -0.4375 0.4375
v 0.5 -0.4375 -0.4375
v -0.5 0.4375 -0.4375
v -0.5 0.4375 0.4375
v -0.5 -0.4375 0.4375
v -0.5 -0.4375 -0.4375
vt 0.0625 0.5
vt 0.9375 0.5
vt 0.9375 0.41161250000000005
vt 0.0625 0.41161250000000005
vt 0.9375 1
vt 0.9375 0.125
vt 0.0625 0.125
vt 0.0625 1
vt 0.0625 0.125
vt 0.0625 1
vt 0.9375 1
vt 0.9375 0.125
vt 0.0625 0.8491124999999999
vt 0.0625 0.9375
vt 0.9375 0.9375
vt 0.9375 0.8491124999999999
vt 0.9375 0.875
vt 0.9375 0
vt 0.0625 0
vt 0.0625 0.875
vt 0.9375 0.6875
vt 0.9375 0.5991124999999999
vt 0.0625 0.5991124999999999
vt 0.0625 0.6875
vt 0.9375 0.9375
vt 0.9375 0.8491124999999999
vt 0.0625 0.8491124999999999
vt 0.0625 0.9375
vt 0.9375 1
vt 0.9375 0.125
vt 0.0625 0.125
vt 0.0625 1
vt 0.875 0.9375
vt 0.875 0.8491124999999999
vt 0 0.8491124999999999
vt 0 0.9375
vt 0.875 1
vt 0.875 0.125
vt 0 0.125
vt 0 1
vt 0.875 0.5625
vt 0.875 0.47411250000000005
vt 0 0.47411250000000005
vt 0 0.5625
vt 0.5883875 0.125
vt 0.5 0.125
vt 0.5 1
vt 0.5883875 1
vt 0.9375 0.9375
vt 0.9375 0.8491124999999999
vt 0.0625 0.8491124999999999
vt 0.0625 0.9375
vt 0.0625 0.8491124999999999
vt 0.0625 0.9375
vt 0.9375 0.9375
vt 0.9375 0.8491124999999999
vt 0.875 1
vt 0.875 0.125
vt 0 0.125
vt 0 1
vt 0.6508875 0.125
vt 0.5625 0.125
vt 0.5625 1
vt 0.6508875 1
vt 0.5883875 0.125
vt 0.5 0.125
vt 0.5 1
vt 0.5883875 1
vt 0.6508875 0.125
vt 0.5625 0.125
vt 0.5625 1
vt 0.6508875 1
vt 0.10669375 0.9375
vt 0.1508875 0.86095625
vt 0.0625 0.86095625
vt 0.10669375 0.9375
vt 0.1508875 0.86095625
vt 0.0625 0.86095625
vt 0.0625 0.86095625
vt 0.10669375 0.9375
vt 0.1508875 0.86095625
vt 0.0625 0.86095625
vt 0.10669375 0.9375
vt 0.1508875 0.86095625
vt 0.1508875 1
vt 0.10669375 0.92345625
vt 0.0625 1
vt 0.0625 1
vt 0.1508875 1
vt 0.10669375 0.92345625
vt 0.125 1
vt 0.2133875 1
vt 0.16919375 0.92345625
vt 0.0625 1
vt 0.1508875 1
vt 0.10669375 0.92345625
vn 0 0.7071067811865476 -0.7071067811865476
vn 0 1 0
vn 0 0 1
vn 0 0.7071067811865476 0.7071067811865476
vn 0 0 -1
vn 0 -0.7071067811865476 -0.7071067811865476
vn 0 -0.7071067811865476 0.7071067811865476
vn 0 -1 0
vn 0.7071067811865476 0.7071067811865476 0
vn 1 0 0
vn 0.7071067811865476 -0.7071067811865476 0
vn 0.7071067811865476 0 -0.7071067811865476
vn -0.7071067811865476 0.7071067811865476 0
vn -0.7071067811865476 -0.7071067811865476 0
vn -1 0 0
vn -0.7071067811865476 0 -0.7071067811865476
vn -0.7071067811865476 0 0.7071067811865476
vn 0.7071067811865476 0 0.7071067811865476
vn -0.5773502691896258 0.5773502691896258 0.5773502691896258
vn -0.5773502691896258 0.5773502691896258 -0.5773502691896258
vn 0.5773502691896258 0.5773502691896258 -0.5773502691896258
vn 0.5773502691896258 0.5773502691896258 0.5773502691896258
vn -0.5773502691896258 -0.5773502691896258 -0.5773502691896258
vn 0.5773502691896258 -0.5773502691896258 -0.5773502691896258
vn 0.5773502691896258 -0.5773502691896258 0.5773502691896258
vn -0.5773502691896258 -0.5773502691896258 0.5773502691896258
usemtl none
f 4/1/1 1/2/1 3/3/1 6/4/1
f 4/5/2 7/6/2 8/7/2 1/8/2
f 2/9/3 9/10/3 10/11/3 5/12/3
f 9/13/4 8/14/4 7/15/4 10/16/4
f 3/17/5 11/18/5 12/19/5 6/20/5
f 11/21/6 13/22/6 14/23/6 12/24/6
f 5/25/7 15/26/7 16/27/7 2/28/7
f 15/29/8 14/30/8 13/31/8 16/32/8
f 8/33/9 17/34/9 18/35/9 1/36/9
f 17/37/10 19/38/10 20/39/10 18/40/10
f 19/41/11 16/42/11 13/43/11 20/44/11
f 20/45/12 11/46/12 3/47/12 18/48/12
f 4/49/13 21/50/13 22/51/13 7/52/13
f 15/53/14 23/54/14 24/55/14 14/56/14
f 21/57/15 24/58/15 23/59/15 22/60/15
f 12/61/16 24/62/16 21/63/16 6/64/16
f 23/65/17 5/66/17 10/67/17 22/68/17
f 2/69/18 19/70/18 17/71/18 9/72/18
f 7/73/19 22/74/19 10/75/19
f 4/76/20 6/77/20 21/78/20
f 3/79/21 1/80/21 18/81/21
f 17/82/22 8/83/22 9/84/22
f 12/85/23 14/86/23 24/87/23
f 11/88/24 20/89/24 13/90/24
f 19/91/25 2/92/25 16/93/25
f 5/94/26 23/95/26 15/96/26