# Made in Blockbench 4.1.4
mtllib curved_platform_right.mtl

o cube
v -0.4999999999999971 0.5000000000000002 -0.5
v -1.5 0.5 0.4999999999999999
v 0.49999999999999756 0.5000000000000002 -0.4999999999999998
v -1.5000000000000002 0.4999999999999998 1.5
v -0.6874999999999984 0.5 0.3125000000000001
v 0.06249999999999856 0.4999999999999999 1.0625000000000002
v -0.7500000000000009 0.4999999999999998 1.5000000000000002
v 0.4999999999999982 0.5000000000000001 0.25000000000000033
v -0.5000000000000001 0.5000000000000001 -0.09374999999999989
v -1.0937499999999993 0.5 0.5
v -0.31250000000000105 0.4999999999999998 1.3125
v 0.3124999999999982 0.49999999999999994 0.6875000000000002
v -0.5312499999999992 0.5000000000000001 0.10937500000000011
v -0.8906249999999989 0.5 0.46875000000000006
v 0.4999999999999982 -0.49999999999999994 0.2500000000000001
v 0.49999999999999756 -0.4999999999999998 -0.5000000000000002
v -0.4999999999999971 -0.4999999999999998 -0.5000000000000004
v -0.5000000000000001 -0.49999999999999983 -0.09375000000000011
v 0.3124999999999982 -0.5 0.6875
v -0.5312499999999992 -0.4999999999999999 0.10937499999999989
v 0.06249999999999856 -0.5000000000000001 1.0625
v -0.6874999999999984 -0.49999999999999994 0.3124999999999999
v -0.31250000000000105 -0.5000000000000002 1.3125
v -0.8906249999999989 -0.5 0.4687499999999998
v -0.7500000000000009 -0.5000000000000002 1.4999999999999998
v -1.0937499999999993 -0.5 0.4999999999999997
v -1.5000000000000002 -0.5000000000000002 1.4999999999999996
v -1.5 -0.5 0.49999999999999967
vt 0.5 0.75
vt 0.5 1
vt 0.75 1
vt 0.75 0.75
vt 0.5 0.75
vt 0.75 0.75
vt 0.75 0.5
vt 0.5 0.5
vt 0.609375 0
vt 0.5 0
vt 0.5 0.25
vt 0.609375 0.25
vt 0.6875 0.25
vt 0.5 0.25
vt 0.5 0.5
vt 0.6875 0.5
vt 0.9375 0.75
vt 0.875 0.75
vt 0.875 1
vt 0.9375 1
vt 0.71875 0
vt 0.609375 0
vt 0.609375 0.25
vt 0.71875 0.25
vt 0.875 0.75
vt 0.75 0.75
vt 0.75 1
vt 0.875 1
vt 0.6875 0.5
vt 0.875 0.5
vt 0.875 0.25
vt 0.6875 0.25
vt 0.921875 0.25
vt 0.875 0.25
vt 0.875 0.5
vt 0.921875 0.5
vt 0.71875 0.25
vt 0.828125 0.25
vt 0.828125 0
vt 0.71875 0
vt 0.828125 0.25
vt 0.9375 0.25
vt 0.9375 0
vt 0.828125 0
vt 0.75 0.75
vt 0.875 0.75
vt 0.875 0.5
vt 0.75 0.5
vt 0.875 0.75
vt 0.9375 0.75
vt 0.9375 0.5
vt 0.875 0.5
vt 0.921875 0.5
vt 0.96875 0.5
vt 0.96875 0.25
vt 0.921875 0.25
vt 0.1875 0.5
vt 0 0.5
vt 0 0.75
vt 0.1875 0.5
vt 0 0.75
vt 0.1015625 0.75
vt 0.1875 0.5
vt 0.1015625 0.75
vt 0.296875 0.546875
vt 0.296875 0.546875
vt 0.1015625 0.75
vt 0.15234375 0.7578125
vt 0.296875 0.546875
vt 0.15234375 0.7578125
vt 0.390625 0.609375
vt 0.390625 0.609375
vt 0.15234375 0.7578125
vt 0.203125 0.796875
vt 0.390625 0.609375
vt 0.203125 0.796875
vt 0.453125 0.703125
vt 0.453125 0.703125
vt 0.203125 0.796875
vt 0.2421875 0.84765625
vt 0.453125 0.703125
vt 0.2421875 0.84765625
vt 0.5 0.8125
vt 0.5 0.8125
vt 0.2421875 0.84765625
vt 0.25 0.8984375
vt 0.5 0.8125
vt 0.25 0.8984375
vt 0.5 1
vt 0.5 1
vt 0.25 0.8984375
vt 0.25 1
vt 0.1875 0
vt 0 0
vt 0 0.25
vt 0.1875 0
vt 0 0.25
vt 0.1015625 0.25
vt 0.1875 0
vt 0.1015625 0.25
vt 0.296875 0.046875
vt 0.296875 0.046875
vt 0.1015625 0.25
vt 0.15234375 0.2578125
vt 0.296875 0.046875
vt 0.15234375 0.2578125
vt 0.390625 0.109375
vt 0.390625 0.109375
vt 0.15234375 0.2578125
vt 0.203125 0.296875
vt 0.390625 0.109375
vt 0.203125 0.296875
vt 0.453125 0.203125
vt 0.453125 0.203125
vt 0.203125 0.296875
vt 0.2421875 0.34765625
vt 0.453125 0.203125
vt 0.2421875 0.34765625
vt 0.5 0.3125
vt 0.5 0.3125
vt 0.2421875 0.34765625
vt 0.25 0.3984375
vt 0.5 0.3125
vt 0.25 0.3984375
vt 0.5 0.5
vt 0.5 0.5
vt 0.25 0.3984375
vt 0.25 0.5
vn 2.220446049250313e-16 2.448128005901435e-16 -1
vn -1 5.435936158762889e-32 -2.220446049250313e-16
vn -1 1.7938589323917523e-30 -7.32747196252603e-15
vn -2.220446049250313e-16 -2.448128005901435e-16 1
vn -0.6097107608496913 1.9404449858762873e-16 -0.7926239891046009
vn 0.832050294337844 -1.3579770852580038e-16 0.5547001962252287
vn 0.39391929857916763 -2.2501846894723227e-16 0.9191450300180579
vn 1 2.355572335463918e-31 -9.621932880084687e-16
vn -0.9883716976506178 3.722554512705782e-17 -0.1520571842539371
vn 2.220446049250313e-16 2.448128005901435e-16 -1
vn 0.5547001962252294 -2.036965627887007e-16 0.8320502943378435
vn 0.9191450300180579 -9.643648669167104e-17 0.39391929857916796
vn -0.7926239891046016 1.4926499891355995e-16 -0.6097107608496904
vn -0.15205718425394057 2.419660433258822e-16 -0.9883716976506174
vn -5.055555011315649e-33 1 2.448128005901435e-16
vn -5.055555011315649e-33 1 2.448128005901435e-16
vn -5.055555011315649e-33 1 2.448128005901435e-16
vn -5.055555011315649e-33 1 2.448128005901435e-16
vn -5.055555011315649e-33 1 2.448128005901435e-16
vn -5.055555011315649e-33 1 2.448128005901435e-16
vn -5.055555011315649e-33 1 2.448128005901435e-16
vn -5.055555011315649e-33 1 2.448128005901435e-16
vn -5.055555011315649e-33 1 2.448128005901435e-16
vn -5.055555011315649e-33 1 2.448128005901435e-16
vn -5.055555011315649e-33 1 2.448128005901435e-16
vn -5.055555011315649e-33 1 2.448128005901435e-16
vn -5.055555011315649e-33 1 2.448128005901435e-16
vn -5.055555011315649e-33 1 2.448128005901435e-16
vn -5.055555011315649e-33 1 2.448128005901435e-16
vn -5.055555011315649e-33 1 2.448128005901435e-16
vn -5.055555011315649e-33 1 2.448128005901435e-16
vn -5.055555011315649e-33 1 2.448128005901435e-16
vn -5.055555011315649e-33 1 2.448128005901435e-16
vn -5.055555011315649e-33 1 2.448128005901435e-16
vn -5.055555011315649e-33 1 2.448128005901435e-16
vn -5.055555011315649e-33 1 2.448128005901435e-16
vn -5.055555011315649e-33 1 2.448128005901435e-16
vn -5.055555011315649e-33 1 2.448128005901435e-16
usemtl none
f 17/1/1 1/2/1 3/3/1 16/4/1
f 4/5/2 2/6/2 28/7/2 27/8/2
f 17/9/3 18/10/3 9/11/3 1/12/3
f 27/13/4 25/14/4 7/15/4 4/16/4
f 22/17/5 24/18/5 14/19/5 5/20/5
f 21/21/6 19/22/6 12/23/6 6/24/6
f 25/25/7 23/26/7 11/27/7 7/28/7
f 3/29/8 8/30/8 15/31/8 16/32/8
f 18/33/9 20/34/9 13/35/9 9/36/9
f 2/37/10 10/38/10 26/39/10 28/40/10
f 6/41/11 11/42/11 23/43/11 21/44/11
f 8/45/12 12/46/12 19/47/12 15/48/12
f 5/49/13 13/50/13 20/51/13 22/52/13
f 10/53/14 14/54/14 24/55/14 26/56/14
f 8/57/15 3/58/15 1/59/15
f 8/60/16 1/61/16 9/62/16
f 8/63/17 9/64/17 12/65/17
f 12/66/18 9/67/18 13/68/18
f 12/69/19 13/70/19 6/71/19
f 6/72/20 13/73/20 5/74/20
f 6/75/21 5/76/21 11/77/21
f 11/78/22 5/79/22 14/80/22
f 11/81/23 14/82/23 7/83/23
f 7/84/24 14/85/24 10/86/24
f 7/87/25 10/88/25 4/89/25
f 4/90/26 10/91/26 2/92/26
f 15/93/27 16/94/27 17/95/27
f 15/96/28 17/97/28 18/98/28
f 15/99/29 18/100/29 19/101/29
f 19/102/30 18/103/30 20/104/30
f 19/105/31 20/106/31 21/107/31
f 21/108/32 20/109/32 22/110/32
f 21/111/33 22/112/33 23/113/33
f 23/114/34 22/115/34 24/116/34
f 23/117/35 24/118/35 25/119/35
f 25/120/36 24/121/36 26/122/36
f 25/123/37 26/124/37 27/125/37
f 27/126/38 26/127/38 28/128/38