# Made in Blockbench 4.1.4
mtllib curved_platform_left.mtl

o cube
v 1.5 0.5 0.5000000000000029
v 0.5 0.5 -0.5
v 1.5 0.5 1.4999999999999973
v -0.5 0.5 -0.5
v 0.6875 0.5 0.31250000000000155
v -0.0625 0.5 1.0624999999999987
v -0.5 0.5 0.24999999999999933
v 0.75 0.5 1.4999999999999982
v 1.09375 0.5 0.5
v 0.5 0.5 -0.09374999999999933
v -0.3125 0.5 0.6874999999999991
v 0.3125 0.5 1.3124999999999982
v 0.890625 0.5 0.4687500000000009
v 0.53125 0.5 0.10937500000000111
v 0.75 -0.5 1.4999999999999982
v 1.5 -0.5 1.4999999999999973
v 1.5 -0.5 0.5000000000000029
v 1.09375 -0.5 0.5
v 0.3125 -0.5 1.3124999999999982
v 0.890625 -0.5 0.4687500000000009
v -0.0625 -0.5 1.0624999999999987
v 0.6875 -0.5 0.31250000000000155
v -0.3125 -0.5 0.6874999999999991
v 0.53125 -0.5 0.10937500000000111
v -0.5 -0.5 0.24999999999999933
v 0.5 -0.5 -0.09374999999999933
v -0.5 -0.5 -0.5
v 0.5 -0.5 -0.5
vt 0.5 0.5
vt 0.5 0.75
vt 0.75 0.75
vt 0.75 0.5
vt 0.5 1
vt 0.75 1
vt 0.75 0.75
vt 0.5 0.75
vt 0.859375 0.5
vt 0.75 0.5
vt 0.75 0.75
vt 0.859375 0.75
vt 0.6875 0
vt 0.5 0
vt 0.5 0.25
vt 0.6875 0.25
vt 0.96875 0.75
vt 0.90625 0.75
vt 0.90625 1
vt 0.96875 1
vt 0.921875 0.25
vt 0.8125 0.25
vt 0.8125 0.5
vt 0.921875 0.5
vt 0.8125 0
vt 0.6875 0
vt 0.6875 0.25
vt 0.8125 0.25
vt 0.5 0.5
vt 0.6875 0.5
vt 0.6875 0.25
vt 0.5 0.25
vt 0.90625 0.5
vt 0.859375 0.5
vt 0.859375 0.75
vt 0.90625 0.75
vt 0.75 1
vt 0.859375 1
vt 0.859375 0.75
vt 0.75 0.75
vt 0.8125 0.25
vt 0.921875 0.25
vt 0.921875 0
vt 0.8125 0
vt 0.6875 0.5
vt 0.8125 0.5
vt 0.8125 0.25
vt 0.6875 0.25
vt 0.90625 0.75
vt 0.96875 0.75
vt 0.96875 0.5
vt 0.90625 0.5
vt 0.859375 1
vt 0.90625 1
vt 0.90625 0.75
vt 0.859375 0.75
vt 0.25 0.8984375
vt 0.25 1
vt 0.5 1
vt 0.5 0.8125
vt 0.2421875 0.84765625
vt 0.25 0.8984375
vt 0.5 0.8125
vt 0.453125 0.703125
vt 0.203125 0.796875
vt 0.2421875 0.84765625
vt 0.453125 0.703125
vt 0.390625 0.609375
vt 0.15234375 0.7578125
vt 0.203125 0.796875
vt 0.390625 0.609375
vt 0.296875 0.546875
vt 0.1015625 0.75
vt 0.15234375 0.7578125
vt 0.296875 0.546875
vt 0.1875 0.5
vt 0 0.75
vt 0.1015625 0.75
vt 0.1875 0.5
vt 0 0.5
vt 0 0
vt 0.1875 0
vt 0.1015625 0.25
vt 0 0.25
vt 0.1875 0
vt 0.296875 0.046875
vt 0.15234375 0.2578125
vt 0.1015625 0.25
vt 0.296875 0.046875
vt 0.390625 0.109375
vt 0.203125 0.296875
vt 0.15234375 0.2578125
vt 0.390625 0.109375
vt 0.453125 0.203125
vt 0.2421875 0.34765625
vt 0.203125 0.296875
vt 0.453125 0.203125
vt 0.5 0.3125
vt 0.25 0.3984375
vt 0.2421875 0.34765625
vt 0.5 0.3125
vt 0.5 0.5
vt 0.25 0.5
vt 0.25 0.3984375
vn 1 0 0
vn 0 0 -1
vn 7.105427357601002e-15 0 -1
vn -1 0 0
vn 0.7926239891046007 0 -0.6097107608496916
vn -0.5547001962252285 0 0.8320502943378442
vn -0.9191450300180578 0 0.39391929857916785
vn 1.1842378929335002e-15 0 1
vn 0.15205718425393688 0 -0.9883716976506178
vn 1 0 0
vn -0.8320502943378434 0 0.5547001962252296
vn -0.39391929857916774 0 0.919145030018058
vn 0.6097107608496908 0 -0.7926239891046014
vn 0.9883716976506174 0 -0.1520571842539408
vn 0 1 0
vn 0 1 0
vn 0 1 0
vn 0 1 0
vn 0 1 0
vn 0 1 0
vn 0 -1 0
vn 0 -1 0
vn 0 -1 0
vn 0 -1 0
vn 0 -1 0
vn 0 -1 0
usemtl none
f 17/1/1 1/2/1 3/3/1 16/4/1
f 4/5/2 2/6/2 28/7/2 27/8/2
f 17/9/3 18/10/3 9/11/3 1/12/3
f 27/13/4 25/14/4 7/15/4 4/16/4
f 22/17/5 24/18/5 14/19/5 5/20/5
f 21/21/6 19/22/6 12/23/6 6/24/6
f 25/25/7 23/26/7 11/27/7 7/28/7
f 3/29/8 8/30/8 15/31/8 16/32/8
f 18/33/9 20/34/9 13/35/9 9/36/9
f 2/37/10 10/38/10 26/39/10 28/40/10
f 6/41/11 11/42/11 23/43/11 21/44/11
f 8/45/12 12/46/12 19/47/12 15/48/12
f 5/49/13 13/50/13 20/51/13 22/52/13
f 10/53/14 14/54/14 24/55/14 26/56/14
f 10/57/15 2/58/15 4/59/15 7/60/15
f 14/61/16 10/62/16 7/63/16 11/64/16
f 5/65/17 14/66/17 11/67/17 6/68/17
f 13/69/18 5/70/18 6/71/18 12/72/18
f 9/73/19 13/74/19 12/75/19 8/76/19
f 1/77/20 9/78/20 8/79/20 3/80/20
f 16/81/21 15/82/21 18/83/21 17/84/21
f 15/85/22 19/86/22 20/87/22 18/88/22
f 19/89/23 21/90/23 22/91/23 20/92/23
f 21/93/24 23/94/24 24/95/24 22/96/24
f 23/97/25 25/98/25 26/99/25 24/100/25
f 25/101/26 27/102/26 28/103/26 26/104/26